<?xml version="1.0" encoding="UTF-8"?><svg xmlns="http://www.w3.org/2000/svg" viewBox="0 0 141.73 141.73"><defs><style>.cls-1{opacity:.7;}.cls-2,.cls-3{fill:#0f0f0f;}.cls-4{opacity:.5;}.cls-5{opacity:.6;}.cls-6{letter-spacing:-.03em;}.cls-6,.cls-3,.cls-7{font-family:Bahnschrift-SemiLightSemiCondensed, Bahnschrift;font-variation-settings:'wght' 350, 'wdth' 87;font-weight:300;}.cls-6,.cls-7{font-size:30px;}.cls-8{fill:#e9f4ff;}.cls-8,.cls-9,.cls-10,.cls-11{stroke-width:0px;}.cls-9{fill:#ff4f0c;}.cls-12{font-family:Arial-BoldMT, Arial;font-size:31.38px;font-weight:700;letter-spacing:-.03em;}.cls-3{font-size:11px;}.cls-10{fill:#0051ff;}.cls-7{letter-spacing:-.01em;}.cls-11{fill:#15d137;}</style></defs><g id="Calque_2"><circle class="cls-8" cx="70.87" cy="70.87" r="63.78"/><g class="cls-5"><path class="cls-9" d="m70.72,134.65c32.73,0,59.69-24.66,63.34-56.42-2.42,1.41-6.21,2.64-12.31,1.74-10.64-1.56-23.42-12.65-38.6-12.74-14.66-.09-22.73,21.99-47.26,20.94-10.19-.44-21.42-3.93-28.23-7.64,4.66,30.64,31.11,54.12,63.05,54.12Z"/></g><g class="cls-1"><path class="cls-11" d="m70.68,134.65c30.04,0,55.22-20.78,61.98-48.74-11.66-.15-45.54,16.29-75.53-1.25-15.59-9.12-25.42-29.09-33.4-28.92-5.83.13-11.29,3.97-16.76,17.87,1.44,33.95,29.41,61.04,63.71,61.04Z"/></g><g class="cls-4"><path class="cls-10" d="m107.46,39.08c-13.94,2.29-8.96,42.45-38.83,54.68-31.49,12.89-53.6-6.41-59.27-5.43,7.65,26.72,32.2,46.31,61.54,46.31,32.97,0,59.53-24.62,63.16-56.42-1.41-21.22-17.92-40.57-26.6-39.14Z"/></g></g><g id="Calque_4"><text class="cls-2" transform="translate(38.93 78.42)"><tspan class="cls-7" x="0" y="0">f</tspan><tspan class="cls-6" x="8.21" y="0">ing</tspan><tspan class="cls-12" x="41.37" y="0">R</tspan></text><text class="cls-3" transform="translate(60.4 130.04) rotate(8.8)"><tspan x="0" y="0">v</tspan></text><text class="cls-3" transform="translate(65.26 130.8) rotate(3.49)"><tspan x="0" y="0">e</tspan></text><text class="cls-3" transform="translate(70.49 131.09) rotate(-1.71)"><tspan x="0" y="0">r</tspan></text><text class="cls-3" transform="translate(73.77 130.99) rotate(-4.28)"><tspan x="0" y="0">.</tspan></text><text class="cls-3" transform="translate(75.86 130.84) rotate(-6.75)"><tspan x="0" y="0"> </tspan></text><text class="cls-3" transform="translate(78.38 130.55) rotate(-9.8)"><tspan x="0" y="0">1</tspan></text></g></svg>